<?xml version="1.0" encoding="UTF-8" standalone="no"?>
<svg width="395px" height="395px" viewBox="0 0 395 395" version="1.1" xmlns="http://www.w3.org/2000/svg" xmlns:xlink="http://www.w3.org/1999/xlink" xmlns:sketch="http://www.bohemiancoding.com/sketch/ns">
    <!-- Generator: Sketch 3.2.1 (9977) - http://www.bohemiancoding.com/sketch -->
    <title>logo</title>
    <desc>Created with Sketch.</desc>
    <defs>
        <filter x="-50%" y="-50%" width="200%" height="200%" filterUnits="objectBoundingBox" id="filter-1">
            <feOffset dx="0" dy="2" in="SourceAlpha" result="shadowOffsetOuter1"></feOffset>
            <feGaussianBlur stdDeviation="2" in="shadowOffsetOuter1" result="shadowBlurOuter1"></feGaussianBlur>
            <feColorMatrix values="0 0 0 0 0   0 0 0 0 0   0 0 0 0 0  0 0 0 0.35 0" in="shadowBlurOuter1" type="matrix" result="shadowMatrixOuter1"></feColorMatrix>
            <feMerge>
                <feMergeNode in="shadowMatrixOuter1"></feMergeNode>
                <feMergeNode in="SourceGraphic"></feMergeNode>
            </feMerge>
        </filter>
    </defs>
    <g id="Page-1" stroke="none" stroke-width="1" fill="none" fill-rule="evenodd" sketch:type="MSPage">
        <path d="M213.311194,257.015869 L194.75,336.75 L179.003912,256.264133 C169.404393,253.345882 160.768141,248.215179 153.688914,241.465783 L131.157855,257.786688 L148.827361,236.284969 C143.407482,229.823732 139.250371,222.267492 136.735867,213.996088 L56.25,198.25 L135.984131,179.688806 C138.373401,170.365525 142.826338,161.86907 148.827361,154.715031 L131.157855,133.213312 L153.688914,149.534217 C161.422189,142.161246 171.013486,136.719886 181.688803,133.984141 L200.25,54.25 L215.996088,134.735867 C225.595607,137.654118 234.231859,142.784821 241.311086,149.534217 L263.842145,133.213312 L246.172639,154.715031 C251.592518,161.176268 255.749629,168.732508 258.264133,177.003912 L338.75,192.75 L259.015869,211.311194 C256.626599,220.634475 252.173662,229.13093 246.172639,236.284969 L263.842145,257.786688 L241.311086,241.465783 C233.577811,248.838754 223.986514,254.280114 213.311197,257.015859 Z M197.5,389 C304.367099,389 391,302.367099 391,195.5 C391,88.6329009 304.367099,2 197.5,2 C90.6329009,2 4,88.6329009 4,195.5 C4,302.367099 90.6329009,389 197.5,389 Z" id="Oval-1" fill="#FFFFFF" filter="url(#filter-1)" sketch:type="MSShapeGroup"></path>
        <g id="Triangle-1-+-Triangle-2" sketch:type="MSLayerGroup" transform="translate(283.353553, 111.146447) rotate(45.000000) translate(-283.353553, -111.146447) translate(251.353553, 42.146447)">
            <path d="M63.2151506,137.541757 L32,5.68434189e-14 L32,129.001943 C43.3642496,129.090275 54.0177906,132.187327 63.2151506,137.541757 Z" id="Triangle-1" fill="#EC0606" sketch:type="MSShapeGroup"></path>
            <path d="M32,137.541757 L0.784849397,5.68434189e-14 L0.784849397,129.001943 C12.1490989,129.090275 22.80264,132.187327 32,137.541757 Z" id="Triangle-2" fill="#D0011B" sketch:type="MSShapeGroup" transform="translate(16.392425, 68.770879) scale(-1, 1) translate(-16.392425, -68.770879) "></path>
        </g>
    </g>
</svg>