<?xml version="1.0" encoding="UTF-8" standalone="no"?>
<!-- Created with Inkscape (http://www.inkscape.org/) -->

<svg
   xmlns:dc="http://purl.org/dc/elements/1.1/"
   xmlns:cc="http://creativecommons.org/ns#"
   xmlns:rdf="http://www.w3.org/1999/02/22-rdf-syntax-ns#"
   xmlns:svg="http://www.w3.org/2000/svg"
   xmlns="http://www.w3.org/2000/svg"
   xmlns:xlink="http://www.w3.org/1999/xlink"
   xmlns:sodipodi="http://sodipodi.sourceforge.net/DTD/sodipodi-0.dtd"
   xmlns:inkscape="http://www.inkscape.org/namespaces/inkscape"
   width="744.09448819"
   height="1052.3622047"
   id="svg2"
   version="1.1"
   inkscape:version="0.48.2 r9819"
   sodipodi:docname="smiley.svg">
  <defs
     id="defs4">
    <linearGradient
       id="linearGradient4882">
      <stop
         style="stop-color:#ffffff;stop-opacity:0;"
         offset="0"
         id="stop4884" />
      <stop
         style="stop-color:#2978a8;stop-opacity:1;"
         offset="1"
         id="stop4886" />
    </linearGradient>
    <linearGradient
       id="linearGradient4014">
      <stop
         style="stop-color:#e1cc71;stop-opacity:1;"
         offset="0"
         id="stop4016" />
      <stop
         style="stop-color:#e1b142;stop-opacity:1;"
         offset="1"
         id="stop4018" />
    </linearGradient>
    <linearGradient
       id="linearGradient3968">
      <stop
         id="stop3970"
         offset="0"
         style="stop-color:#80a1e3;stop-opacity:1;" />
      <stop
         id="stop3972"
         offset="1"
         style="stop-color:#537bd7;stop-opacity:1;" />
    </linearGradient>
    <linearGradient
       id="linearGradient3944">
      <stop
         id="stop3946"
         offset="0"
         style="stop-color:#537bd7;stop-opacity:1;" />
      <stop
         id="stop3948"
         offset="1"
         style="stop-color:#3d480a;stop-opacity:0;" />
    </linearGradient>
    <linearGradient
       id="linearGradient3907">
      <stop
         style="stop-color:#aabd47;stop-opacity:1;"
         offset="0"
         id="stop3909" />
      <stop
         style="stop-color:#879e2b;stop-opacity:1;"
         offset="1"
         id="stop3911" />
    </linearGradient>
    <linearGradient
       id="linearGradient3832">
      <stop
         id="stop3834"
         offset="0"
         style="stop-color:#da9f3f;stop-opacity:1;" />
      <stop
         id="stop3836"
         offset="1"
         style="stop-color:#d27e32;stop-opacity:1;" />
    </linearGradient>
    <linearGradient
       inkscape:collect="always"
       id="linearGradient3794">
      <stop
         style="stop-color:#6e181f;stop-opacity:1;"
         offset="0"
         id="stop3796" />
      <stop
         style="stop-color:#6e181f;stop-opacity:0;"
         offset="1"
         id="stop3798" />
    </linearGradient>
    <linearGradient
       id="linearGradient3755">
      <stop
         style="stop-color:#ce706f;stop-opacity:1;"
         offset="0"
         id="stop3757" />
      <stop
         style="stop-color:#c04a46;stop-opacity:1;"
         offset="1"
         id="stop3759" />
    </linearGradient>
    <linearGradient
       inkscape:collect="always"
       xlink:href="#linearGradient4014"
       id="linearGradient4010"
       gradientUnits="userSpaceOnUse"
       x1="119.68254"
       y1="381.24115"
       x2="119.68254"
       y2="469.71301" />
    <filter
       inkscape:collect="always"
       id="filter4329"
       x="-0.39186038"
       width="1.7837208"
       y="-0.39186038"
       height="1.7837208">
      <feGaussianBlur
         inkscape:collect="always"
         stdDeviation="16.327516"
         id="feGaussianBlur4331" />
    </filter>
    <filter
       inkscape:collect="always"
       id="filter4349"
       x="-0.39186038"
       width="1.7837208"
       y="-0.39186038"
       height="1.7837208">
      <feGaussianBlur
         inkscape:collect="always"
         stdDeviation="16.327516"
         id="feGaussianBlur4351" />
    </filter>
    <filter
       inkscape:collect="always"
       id="filter4693"
       x="-0.39186022"
       width="1.7837204"
       y="-0.39186023"
       height="1.7837205">
      <feGaussianBlur
         inkscape:collect="always"
         stdDeviation="16.32751"
         id="feGaussianBlur4695" />
    </filter>
    <linearGradient
       inkscape:collect="always"
       xlink:href="#linearGradient3755"
       id="linearGradient4824"
       gradientUnits="userSpaceOnUse"
       x1="119.68254"
       y1="381.24115"
       x2="119.68254"
       y2="469.71301" />
    <linearGradient
       inkscape:collect="always"
       xlink:href="#linearGradient3794"
       id="linearGradient4826"
       gradientUnits="userSpaceOnUse"
       x1="371.10522"
       y1="425.23285"
       x2="372.78821"
       y2="405.06793" />
    <linearGradient
       inkscape:collect="always"
       xlink:href="#linearGradient3794"
       id="linearGradient4828"
       gradientUnits="userSpaceOnUse"
       x1="371.10522"
       y1="425.23285"
       x2="372.78821"
       y2="405.06793" />
    <linearGradient
       inkscape:collect="always"
       xlink:href="#linearGradient3907"
       id="linearGradient4832"
       gradientUnits="userSpaceOnUse"
       x1="119.68254"
       y1="381.24115"
       x2="119.68254"
       y2="469.71301" />
    <linearGradient
       inkscape:collect="always"
       xlink:href="#linearGradient3968"
       id="linearGradient4834"
       gradientUnits="userSpaceOnUse"
       x1="119.68254"
       y1="381.24115"
       x2="119.68254"
       y2="469.71301" />
    <linearGradient
       inkscape:collect="always"
       xlink:href="#linearGradient3907"
       id="linearGradient4842"
       gradientUnits="userSpaceOnUse"
       x1="119.68254"
       y1="381.24115"
       x2="119.68254"
       y2="469.71301" />
    <linearGradient
       inkscape:collect="always"
       xlink:href="#linearGradient3968"
       id="linearGradient4844"
       gradientUnits="userSpaceOnUse"
       x1="119.68254"
       y1="381.24115"
       x2="119.68254"
       y2="469.71301" />
    <filter
       inkscape:collect="always"
       id="filter4914"
       x="-0.56920998"
       width="2.13842"
       y="-0.63245554"
       height="2.2649111">
      <feGaussianBlur
         inkscape:collect="always"
         stdDeviation="2.4542832"
         id="feGaussianBlur4916" />
    </filter>
    <linearGradient
       inkscape:collect="always"
       xlink:href="#linearGradient3907"
       id="linearGradient5206"
       gradientUnits="userSpaceOnUse"
       x1="119.68254"
       y1="381.24115"
       x2="119.68254"
       y2="469.71301" />
    <linearGradient
       inkscape:collect="always"
       xlink:href="#linearGradient3832"
       id="linearGradient5208"
       gradientUnits="userSpaceOnUse"
       x1="119.68254"
       y1="381.24115"
       x2="119.68254"
       y2="469.71301" />
    <linearGradient
       inkscape:collect="always"
       xlink:href="#linearGradient3755"
       id="linearGradient5210"
       gradientUnits="userSpaceOnUse"
       x1="119.68254"
       y1="381.24115"
       x2="119.68254"
       y2="469.71301" />
    <linearGradient
       inkscape:collect="always"
       xlink:href="#linearGradient3794"
       id="linearGradient5212"
       gradientUnits="userSpaceOnUse"
       x1="371.10522"
       y1="425.23285"
       x2="372.78821"
       y2="405.06793" />
    <linearGradient
       inkscape:collect="always"
       xlink:href="#linearGradient3794"
       id="linearGradient5214"
       gradientUnits="userSpaceOnUse"
       x1="371.10522"
       y1="425.23285"
       x2="372.78821"
       y2="405.06793" />
    <linearGradient
       inkscape:collect="always"
       xlink:href="#linearGradient3968"
       id="linearGradient5462"
       gradientUnits="userSpaceOnUse"
       x1="119.68254"
       y1="381.24115"
       x2="119.68254"
       y2="469.71301" />
    <linearGradient
       inkscape:collect="always"
       xlink:href="#linearGradient3755"
       id="linearGradient6128"
       gradientUnits="userSpaceOnUse"
       x1="119.68254"
       y1="381.24115"
       x2="119.68254"
       y2="469.71301" />
    <linearGradient
       inkscape:collect="always"
       xlink:href="#linearGradient3794"
       id="linearGradient6130"
       gradientUnits="userSpaceOnUse"
       x1="371.10522"
       y1="425.23285"
       x2="372.78821"
       y2="405.06793" />
    <linearGradient
       inkscape:collect="always"
       xlink:href="#linearGradient3794"
       id="linearGradient6132"
       gradientUnits="userSpaceOnUse"
       x1="371.10522"
       y1="425.23285"
       x2="372.78821"
       y2="405.06793" />
    <linearGradient
       inkscape:collect="always"
       xlink:href="#linearGradient3832"
       id="linearGradient6145"
       gradientUnits="userSpaceOnUse"
       x1="119.68254"
       y1="381.24115"
       x2="119.68254"
       y2="469.71301" />
    <linearGradient
       inkscape:collect="always"
       xlink:href="#linearGradient4014"
       id="linearGradient6156"
       gradientUnits="userSpaceOnUse"
       x1="119.68254"
       y1="381.24115"
       x2="119.68254"
       y2="469.71301" />
    <linearGradient
       inkscape:collect="always"
       xlink:href="#linearGradient3907"
       id="linearGradient6182"
       gradientUnits="userSpaceOnUse"
       x1="119.68254"
       y1="381.24115"
       x2="119.68254"
       y2="469.71301" />
    <linearGradient
       inkscape:collect="always"
       xlink:href="#linearGradient3968"
       id="linearGradient6194"
       gradientUnits="userSpaceOnUse"
       x1="119.68254"
       y1="381.24115"
       x2="119.68254"
       y2="469.71301" />
  </defs>
  <sodipodi:namedview
     id="base"
     pagecolor="#202020"
     bordercolor="#666666"
     borderopacity="1.0"
     inkscape:pageopacity="1"
     inkscape:pageshadow="2"
     inkscape:zoom="0.54734008"
     inkscape:cx="338.4373"
     inkscape:cy="535.33694"
     inkscape:document-units="px"
     inkscape:current-layer="layer1"
     showgrid="false"
     inkscape:window-width="1095"
     inkscape:window-height="794"
     inkscape:window-x="0"
     inkscape:window-y="0"
     inkscape:window-maximized="0" />
  <metadata
     id="metadata7">
    <rdf:RDF>
      <cc:Work
         rdf:about="">
        <dc:format>image/svg+xml</dc:format>
        <dc:type
           rdf:resource="http://purl.org/dc/dcmitype/StillImage" />
        <dc:title></dc:title>
      </cc:Work>
    </rdf:RDF>
  </metadata>
  <g
     inkscape:label="Layer 1"
     inkscape:groupmode="layer"
     id="layer1">
    <g
       id="g3871"
       style="opacity:0.6"
       transform="translate(-53.751229,-259.43651)"
       inkscape:export-filename="/Users/gvincent/Desktop/path4924.png"
       inkscape:export-xdpi="150"
       inkscape:export-ydpi="150">
      <path
         transform="matrix(1.09375,0,0,1.1290323,3.8616149,-67.88938)"
         d="m 165.71429,425.21933 c 0,24.45832 -20.46699,44.28571 -45.71429,44.28571 -25.247303,0 -45.714287,-19.82739 -45.714287,-44.28571 0,-24.45832 20.466984,-44.28571 45.714287,-44.28571 25.2473,0 45.71429,19.82739 45.71429,44.28571 z"
         sodipodi:ry="44.285713"
         sodipodi:rx="45.714287"
         sodipodi:cy="425.21933"
         sodipodi:cx="120"
         id="path2985"
         style="fill:url(#linearGradient5210);fill-opacity:1;stroke:#b54c4f;stroke-width:0.89988661000000003;stroke-miterlimit:4;stroke-opacity:0.94117647000000004;stroke-dasharray:none"
         sodipodi:type="arc" />
      <path
         inkscape:connector-curvature="0"
         id="path3786"
         d="m 141.92361,404.33467 c 1.7725,3.42143 5.24242,5.8156 9.3617,5.8156 5.88345,0 10.6383,-4.75485 10.6383,-10.6383 0,-2.87985 -1.16925,-5.45855 -3.026,-7.37588 l -16.974,12.19858 z"
         style="fill:#6e181f;fill-opacity:0.94117647000000004;stroke:none" />
      <path
         transform="translate(-228.34895,-10.815015)"
         inkscape:transform-center-y="0.26302084"
         inkscape:transform-center-x="-1.5256895"
         d="m 379.62674,406.20766 -5.03263,3.43164 -5.03264,3.43163 -0.45556,-6.07421 -0.45557,-6.0742 5.4882,2.64257 z"
         inkscape:randomized="0"
         inkscape:rounded="0"
         inkscape:flatsided="false"
         sodipodi:arg2="0.9723377"
         sodipodi:arg1="-0.074859848"
         sodipodi:r2="3.516794"
         sodipodi:r1="7.0335879"
         sodipodi:cy="406.7337"
         sodipodi:cx="372.61285"
         sodipodi:sides="3"
         id="path3792"
         style="opacity:0.79741377999999996;fill:url(#linearGradient5212);fill-opacity:1;stroke:none"
         sodipodi:type="star" />
      <path
         style="fill:#6e181f;fill-opacity:0.94117647000000004;stroke:none"
         d="m 128.30139,404.33467 c -1.7725,3.42143 -5.24242,5.8156 -9.3617,5.8156 -5.88345,0 -10.6383,-4.75485 -10.6383,-10.6383 0,-2.87985 1.16925,-5.45855 3.026,-7.37588 l 16.974,12.19858 z"
         id="path3806"
         inkscape:connector-curvature="0" />
      <path
         sodipodi:type="star"
         style="opacity:0.79741377999999996;fill:url(#linearGradient5214);fill-opacity:1;stroke:none"
         id="path3808"
         sodipodi:sides="3"
         sodipodi:cx="372.61285"
         sodipodi:cy="406.7337"
         sodipodi:r1="7.0335879"
         sodipodi:r2="3.516794"
         sodipodi:arg1="-0.074859848"
         sodipodi:arg2="0.9723377"
         inkscape:flatsided="false"
         inkscape:rounded="0"
         inkscape:randomized="0"
         d="m 379.62674,406.20766 -5.03263,3.43164 -5.03264,3.43163 -0.45556,-6.07421 -0.45557,-6.0742 5.4882,2.64257 z"
         inkscape:transform-center-x="1.5256935"
         inkscape:transform-center-y="0.26302084"
         transform="matrix(-1,0,0,1,498.57395,-10.815015)" />
      <path
         transform="translate(-232.85454,-12.217793)"
         d="m 389.44619,448.64169 c 0,4.55156 -9.61694,8.24132 -21.48003,8.24132 -11.8631,0 -21.48004,-3.68976 -21.48004,-8.24132 0,-4.55155 9.61694,-8.24132 21.48004,-8.24132 11.86309,0 21.48003,3.68977 21.48003,8.24132 z"
         sodipodi:ry="8.2413197"
         sodipodi:rx="21.480036"
         sodipodi:cy="448.64169"
         sodipodi:cx="367.96616"
         id="path3812"
         style="opacity:0.79741377999999996;fill:#6e181f;fill-opacity:0.94117647000000004;stroke:none"
         sodipodi:type="arc" />
    </g>
    <g
       id="g3901"
       transform="translate(-33.591858,-259.43651)"
       style="opacity:0.6"
       inkscape:export-filename="/Users/gvincent/Desktop/path4924.png"
       inkscape:export-xdpi="150"
       inkscape:export-ydpi="150">
      <path
         sodipodi:type="arc"
         style="fill:url(#linearGradient5208);fill-opacity:1;stroke:#c57b37;stroke-width:0.89988661000000003;stroke-miterlimit:4;stroke-opacity:1;stroke-dasharray:none"
         id="path3814"
         sodipodi:cx="120"
         sodipodi:cy="425.21933"
         sodipodi:rx="45.714287"
         sodipodi:ry="44.285713"
         d="m 165.71429,425.21933 c 0,24.45832 -20.46699,44.28571 -45.71429,44.28571 -25.247303,0 -45.714287,-19.82739 -45.714287,-44.28571 0,-24.45832 20.466984,-44.28571 45.714287,-44.28571 25.2473,0 45.71429,19.82739 45.71429,44.28571 z"
         transform="matrix(1.09375,0,0,1.1290323,128.09882,-67.88938)" />
      <path
         sodipodi:type="arc"
         style="fill:#723616;fill-opacity:1;stroke:none"
         id="path3824"
         sodipodi:cx="367.96616"
         sodipodi:cy="448.64169"
         sodipodi:rx="21.480036"
         sodipodi:ry="8.2413197"
         d="m 389.44619,448.64169 c 0,4.55156 -9.61694,8.24132 -21.48003,8.24132 -11.8631,0 -21.48004,-3.68976 -21.48004,-8.24132 0,-4.55155 9.61694,-8.24132 21.48004,-8.24132 11.86309,0 21.48003,3.68977 21.48003,8.24132 z"
         transform="matrix(1,0,0,1.7130862,-108.61734,-333.56927)" />
      <path
         transform="matrix(1.1486708,0,0,1.0382217,-42.863953,-19.713058)"
         d="m 287.47381,401.4711 c 0,5.31953 -3.89768,9.63185 -8.70571,9.63185 -4.80804,0 -8.70572,-4.31232 -8.70572,-9.63185 0,-5.31953 3.89768,-9.63185 8.70572,-9.63185 4.80803,0 8.70571,4.31232 8.70571,9.63185 z"
         sodipodi:ry="9.6318541"
         sodipodi:rx="8.7057142"
         sodipodi:cy="401.4711"
         sodipodi:cx="278.7681"
         id="path3838"
         style="fill:#723616;fill-opacity:1;stroke:none"
         sodipodi:type="arc" />
      <path
         sodipodi:type="arc"
         style="fill:#723616;fill-opacity:1;stroke:none"
         id="path3840"
         sodipodi:cx="278.7681"
         sodipodi:cy="401.4711"
         sodipodi:rx="8.7057142"
         sodipodi:ry="9.6318541"
         d="m 287.47381,401.4711 c 0,5.31953 -3.89768,9.63185 -8.70571,9.63185 -4.80804,0 -8.70572,-4.31232 -8.70572,-9.63185 0,-5.31953 3.89768,-9.63185 8.70572,-9.63185 4.80803,0 8.70571,4.31232 8.70571,9.63185 z"
         transform="matrix(1.1486708,0,0,1.0382217,-78.863953,-19.713058)" />
    </g>
    <g
       id="g4036"
       transform="translate(269.87967,-263.09055)"
       style="opacity:0.6"
       inkscape:export-filename="/Users/gvincent/Desktop/path4924.png"
       inkscape:export-xdpi="150"
       inkscape:export-ydpi="150">
      <g
         transform="translate(-18.270177,1.8270177)"
         id="g3960">
        <path
           sodipodi:type="arc"
           style="fill:url(#linearGradient5206);fill-opacity:1;stroke:#7e9329;stroke-width:0.89988661000000003;stroke-miterlimit:4;stroke-opacity:1;stroke-dasharray:none"
           id="path3891"
           sodipodi:cx="120"
           sodipodi:cy="425.21933"
           sodipodi:rx="45.714287"
           sodipodi:ry="44.285713"
           d="m 165.71429,425.21933 c 0,24.45832 -20.46699,44.28571 -45.71429,44.28571 -25.247303,0 -45.714287,-19.82739 -45.714287,-44.28571 0,-24.45832 20.466984,-44.28571 45.714287,-44.28571 25.2473,0 45.71429,19.82739 45.71429,44.28571 z"
           transform="matrix(1.09375,0,0,1.1290323,276.08725,-66.062362)" />
        <path
           transform="matrix(1.1486708,0,0,1.0382217,105.12448,-17.88604)"
           d="m 287.47381,401.4711 c 0,5.31953 -3.89768,9.63185 -8.70571,9.63185 -4.80804,0 -8.70572,-4.31232 -8.70572,-9.63185 0,-5.31953 3.89768,-9.63185 8.70572,-9.63185 4.80803,0 8.70571,4.31232 8.70571,9.63185 z"
           sodipodi:ry="9.6318541"
           sodipodi:rx="8.7057142"
           sodipodi:cy="401.4711"
           sodipodi:cx="278.7681"
           id="path3895"
           style="fill:#3d480f;fill-opacity:0.94117647000000004;stroke:none"
           sodipodi:type="arc" />
        <path
           sodipodi:type="arc"
           style="fill:#3d480f;fill-opacity:0.94117647000000004;stroke:none"
           id="path3897"
           sodipodi:cx="278.7681"
           sodipodi:cy="401.4711"
           sodipodi:rx="8.7057142"
           sodipodi:ry="9.6318541"
           d="m 287.47381,401.4711 c 0,5.31953 -3.89768,9.63185 -8.70571,9.63185 -4.80804,0 -8.70572,-4.31232 -8.70572,-9.63185 0,-5.31953 3.89768,-9.63185 8.70572,-9.63185 4.80803,0 8.70571,4.31232 8.70571,9.63185 z"
           transform="matrix(1.1486708,0,0,1.0382217,69.124479,-17.88604)" />
        <path
           style="fill:#3d480a;fill-opacity:1;stroke:none"
           d="m 437.30786,421.58613 -59.94141,0 c -9.4e-4,0.12748 -0.0292,0.24717 -0.0292,0.375 0,17.67311 13.43146,32 30,32 16.56854,0 30,-14.32689 30,-32 0,-0.1279 -0.0278,-0.24745 -0.0292,-0.375 z"
           id="path3924"
           inkscape:connector-curvature="0" />
      </g>
    </g>
    <g
       id="g4030"
       transform="translate(197.29667,-398.2054)"
       style="opacity:0.6"
       inkscape:export-filename="/Users/gvincent/Desktop/path4924.png"
       inkscape:export-xdpi="150"
       inkscape:export-ydpi="150">
      <path
         sodipodi:type="arc"
         style="fill:url(#linearGradient5462);fill-opacity:1;stroke:#5176c8;stroke-width:0.89988661000000003;stroke-miterlimit:4;stroke-opacity:1;stroke-dasharray:none"
         id="path3950"
         sodipodi:cx="120"
         sodipodi:cy="425.21933"
         sodipodi:rx="45.714287"
         sodipodi:ry="44.285713"
         d="m 165.71429,425.21933 c 0,24.45832 -20.46699,44.28571 -45.71429,44.28571 -25.247303,0 -45.714287,-19.82739 -45.714287,-44.28571 0,-24.45832 20.466984,-44.28571 45.714287,-44.28571 25.2473,0 45.71429,19.82739 45.71429,44.28571 z"
         transform="matrix(1.09375,0,0,1.1290323,186.00347,70.879505)" />
      <path
         transform="matrix(1.1486708,0,0,1.0382217,15.040699,119.05583)"
         d="m 287.47381,401.4711 c 0,5.31953 -3.89768,9.63185 -8.70571,9.63185 -4.80804,0 -8.70572,-4.31232 -8.70572,-9.63185 0,-5.31953 3.89768,-9.63185 8.70572,-9.63185 4.80803,0 8.70571,4.31232 8.70571,9.63185 z"
         sodipodi:ry="9.6318541"
         sodipodi:rx="8.7057142"
         sodipodi:cy="401.4711"
         sodipodi:cx="278.7681"
         id="path3952"
         style="fill:#1e408e;fill-opacity:1;stroke:none"
         sodipodi:type="arc" />
      <path
         sodipodi:type="arc"
         style="fill:#1e408e;fill-opacity:1;stroke:none"
         id="path3954"
         sodipodi:cx="278.7681"
         sodipodi:cy="401.4711"
         sodipodi:rx="8.7057142"
         sodipodi:ry="9.6318541"
         d="m 287.47381,401.4711 c 0,5.31953 -3.89768,9.63185 -8.70571,9.63185 -4.80804,0 -8.70572,-4.31232 -8.70572,-9.63185 0,-5.31953 3.89768,-9.63185 8.70572,-9.63185 4.80803,0 8.70571,4.31232 8.70571,9.63185 z"
         transform="matrix(1.1486708,0,0,1.0382217,-20.959311,119.05583)" />
      <path
         inkscape:connector-curvature="0"
         id="path3974"
         d="m 346.39703,560.03976 c -0.12185,15.56544 -12.77769,28.14598 -28.37186,28.14598 -15.42276,0 -27.97141,-12.30546 -28.36332,-27.63374"
         style="fill:none;stroke:#1e408e;stroke-width:7.25449944000000002;stroke-linecap:round;stroke-linejoin:round;stroke-miterlimit:4;stroke-opacity:1;stroke-dasharray:none" />
    </g>
    <g
       id="g4023"
       transform="translate(205.87722,-425.71444)"
       style="opacity:0.6"
       inkscape:export-filename="/Users/gvincent/Desktop/path4924.png"
       inkscape:export-xdpi="150"
       inkscape:export-ydpi="150">
      <g
         id="g4020">
        <path
           sodipodi:type="arc"
           style="fill:url(#linearGradient4010);fill-opacity:1;stroke:#d0a741;stroke-width:0.89988661000000003;stroke-miterlimit:4;stroke-opacity:1;stroke-dasharray:none"
           id="path4002"
           sodipodi:cx="120"
           sodipodi:cy="425.21933"
           sodipodi:rx="45.714287"
           sodipodi:ry="44.285713"
           d="m 165.71429,425.21933 c 0,24.45832 -20.46699,44.28571 -45.71429,44.28571 -25.247303,0 -45.714287,-19.82739 -45.714287,-44.28571 0,-24.45832 20.466984,-44.28571 45.714287,-44.28571 25.2473,0 45.71429,19.82739 45.71429,44.28571 z"
           transform="matrix(1.09375,0,0,1.1290323,33.026353,98.388548)" />
      </g>
      <path
         sodipodi:type="arc"
         style="fill:#6d4d14;fill-opacity:1;stroke:none"
         id="path4004"
         sodipodi:cx="278.7681"
         sodipodi:cy="401.4711"
         sodipodi:rx="8.7057142"
         sodipodi:ry="9.6318541"
         d="m 287.47381,401.4711 c 0,5.31953 -3.89768,9.63185 -8.70571,9.63185 -4.80804,0 -8.70572,-4.31232 -8.70572,-9.63185 0,-5.31953 3.89768,-9.63185 8.70572,-9.63185 4.80803,0 8.70571,4.31232 8.70571,9.63185 z"
         transform="matrix(1.1486708,0,0,1.0382217,-137.93642,146.56487)" />
      <path
         transform="matrix(1.1486708,0,0,1.0382217,-173.93643,146.56487)"
         d="m 287.47381,401.4711 c 0,5.31953 -3.89768,9.63185 -8.70571,9.63185 -4.80804,0 -8.70572,-4.31232 -8.70572,-9.63185 0,-5.31953 3.89768,-9.63185 8.70572,-9.63185 4.80803,0 8.70571,4.31232 8.70571,9.63185 z"
         sodipodi:ry="9.6318541"
         sodipodi:rx="8.7057142"
         sodipodi:cy="401.4711"
         sodipodi:cx="278.7681"
         id="path4006"
         style="fill:#6d4d14;fill-opacity:1;stroke:none"
         sodipodi:type="arc" />
      <path
         inkscape:connector-curvature="0"
         id="path4012"
         d="m 146.26759,599.4694 34.88952,0.67096"
         style="fill:none;stroke:#6d4d14;stroke-width:10;stroke-linecap:round;stroke-linejoin:round;stroke-miterlimit:4;stroke-opacity:1;stroke-dasharray:none" />
    </g>
    <g
       transform="matrix(0.99904382,0,0,0.99599167,206.0343,-247.95181)"
       id="g4759"
       inkscape:export-filename="/Users/gvincent/Desktop/path4924.png"
       inkscape:export-xdpi="150"
       inkscape:export-ydpi="150">
      <g
         id="g4761">
        <path
           transform="matrix(1.09375,0,0,1.1290323,33.026353,98.388548)"
           d="m 165.71429,425.21933 c 0,24.45832 -20.46699,44.28571 -45.71429,44.28571 -25.247303,0 -45.714287,-19.82739 -45.714287,-44.28571 0,-24.45832 20.466984,-44.28571 45.714287,-44.28571 25.2473,0 45.71429,19.82739 45.71429,44.28571 z"
           sodipodi:ry="44.285713"
           sodipodi:rx="45.714287"
           sodipodi:cy="425.21933"
           sodipodi:cx="120"
           id="path4763"
           style="fill:url(#linearGradient6156);fill-opacity:1;stroke:#d0a741;stroke-width:0.89988661;stroke-miterlimit:4;stroke-opacity:1;stroke-dasharray:none"
           sodipodi:type="arc" />
      </g>
      <path
         transform="matrix(1.1486708,0,0,1.0382217,-137.93642,146.56487)"
         d="m 287.47381,401.4711 c 0,5.31953 -3.89768,9.63185 -8.70571,9.63185 -4.80804,0 -8.70572,-4.31232 -8.70572,-9.63185 0,-5.31953 3.89768,-9.63185 8.70572,-9.63185 4.80803,0 8.70571,4.31232 8.70571,9.63185 z"
         sodipodi:ry="9.6318541"
         sodipodi:rx="8.7057142"
         sodipodi:cy="401.4711"
         sodipodi:cx="278.7681"
         id="path4765"
         style="fill:#6d4d14;fill-opacity:1;stroke:none"
         sodipodi:type="arc" />
      <path
         sodipodi:type="arc"
         style="fill:#6d4d14;fill-opacity:1;stroke:none"
         id="path4767"
         sodipodi:cx="278.7681"
         sodipodi:cy="401.4711"
         sodipodi:rx="8.7057142"
         sodipodi:ry="9.6318541"
         d="m 287.47381,401.4711 c 0,5.31953 -3.89768,9.63185 -8.70571,9.63185 -4.80804,0 -8.70572,-4.31232 -8.70572,-9.63185 0,-5.31953 3.89768,-9.63185 8.70572,-9.63185 4.80803,0 8.70571,4.31232 8.70571,9.63185 z"
         transform="matrix(1.1486708,0,0,1.0382217,-173.93643,146.56487)" />
      <path
         style="fill:none;stroke:#6d4d14;stroke-width:10;stroke-linecap:round;stroke-linejoin:round;stroke-miterlimit:4;stroke-opacity:1;stroke-dasharray:none"
         d="m 146.26759,599.4694 34.88952,0.67096"
         id="path4769"
         inkscape:connector-curvature="0" />
    </g>
    <path
       sodipodi:type="arc"
       style="fill:#2978a8;fill-opacity:1;stroke:none;filter:url(#filter4914)"
       id="path4896"
       sodipodi:cx="351.83765"
       sodipodi:cy="770.37463"
       sodipodi:rx="5.1740832"
       sodipodi:ry="4.6566749"
       d="m 357.01173,770.37463 a 5.1740832,4.6566749 0 1 1 -10.34817,0 5.1740832,4.6566749 0 1 1 10.34817,0 z"
       transform="matrix(1.4481462,0,0,1.6041355,-139.35881,-819.85891)"
       inkscape:export-filename="/Users/gvincent/Desktop/path4924.png"
       inkscape:export-xdpi="150"
       inkscape:export-ydpi="150" />
    <g
       transform="matrix(0.99904382,0,0,0.99599167,197.60002,-220.3557)"
       id="g4749"
       inkscape:export-filename="/Users/gvincent/Desktop/path4924.png"
       inkscape:export-xdpi="150"
       inkscape:export-ydpi="150">
      <path
         transform="matrix(1.09375,0,0,1.1290323,186.00347,70.879505)"
         d="m 165.71429,425.21933 c 0,24.45832 -20.46699,44.28571 -45.71429,44.28571 -25.247303,0 -45.714287,-19.82739 -45.714287,-44.28571 0,-24.45832 20.466984,-44.28571 45.714287,-44.28571 25.2473,0 45.71429,19.82739 45.71429,44.28571 z"
         sodipodi:ry="44.285713"
         sodipodi:rx="45.714287"
         sodipodi:cy="425.21933"
         sodipodi:cx="120"
         id="path4751"
         style="fill:url(#linearGradient6194);fill-opacity:1;stroke:#5176c8;stroke-width:0.89988661;stroke-miterlimit:4;stroke-opacity:1;stroke-dasharray:none"
         sodipodi:type="arc" />
      <path
         sodipodi:type="arc"
         style="fill:#1e408e;fill-opacity:1;stroke:none"
         id="path4753"
         sodipodi:cx="278.7681"
         sodipodi:cy="401.4711"
         sodipodi:rx="8.7057142"
         sodipodi:ry="9.6318541"
         d="m 287.47381,401.4711 c 0,5.31953 -3.89768,9.63185 -8.70571,9.63185 -4.80804,0 -8.70572,-4.31232 -8.70572,-9.63185 0,-5.31953 3.89768,-9.63185 8.70572,-9.63185 4.80803,0 8.70571,4.31232 8.70571,9.63185 z"
         transform="matrix(1.1486708,0,0,1.0382217,15.040699,119.05583)" />
      <path
         transform="matrix(1.1486708,0,0,1.0382217,-20.959311,119.05583)"
         d="m 287.47381,401.4711 c 0,5.31953 -3.89768,9.63185 -8.70571,9.63185 -4.80804,0 -8.70572,-4.31232 -8.70572,-9.63185 0,-5.31953 3.89768,-9.63185 8.70572,-9.63185 4.80803,0 8.70571,4.31232 8.70571,9.63185 z"
         sodipodi:ry="9.6318541"
         sodipodi:rx="8.7057142"
         sodipodi:cy="401.4711"
         sodipodi:cx="278.7681"
         id="path4755"
         style="fill:#1e408e;fill-opacity:1;stroke:none"
         sodipodi:type="arc" />
      <path
         style="fill:none;stroke:#1e408e;stroke-width:7.25449944;stroke-linecap:round;stroke-linejoin:round;stroke-miterlimit:4;stroke-opacity:1;stroke-dasharray:none"
         d="m 346.39703,560.03976 c -0.12185,15.56544 -12.77769,28.14598 -28.37186,28.14598 -15.42276,0 -27.97141,-12.30546 -28.36332,-27.63374"
         id="path4757"
         inkscape:connector-curvature="0" />
    </g>
    <path
       transform="matrix(1.4481462,0,0,1.6041355,5.0377892,-819.56289)"
       d="m 357.01173,770.37463 a 5.1740832,4.6566749 0 1 1 -10.34817,0 5.1740832,4.6566749 0 1 1 10.34817,0 z"
       sodipodi:ry="4.6566749"
       sodipodi:rx="5.1740832"
       sodipodi:cy="770.37463"
       sodipodi:cx="351.83765"
       id="path4918"
       style="fill:#2978a8;fill-opacity:1;stroke:none;filter:url(#filter4914)"
       sodipodi:type="arc"
       inkscape:export-filename="/Users/gvincent/Desktop/path4924.png"
       inkscape:export-xdpi="150"
       inkscape:export-ydpi="150" />
    <g
       transform="matrix(0.99904382,0,0,0.99599167,270.25169,-85.760835)"
       id="g4737"
       inkscape:export-filename="/Users/gvincent/Desktop/path4924.png"
       inkscape:export-xdpi="150"
       inkscape:export-ydpi="150">
      <g
         id="g4739"
         transform="translate(-18.270177,1.8270177)">
        <path
           transform="matrix(1.09375,0,0,1.1290323,276.08725,-66.062362)"
           d="m 165.71429,425.21933 c 0,24.45832 -20.46699,44.28571 -45.71429,44.28571 -25.247303,0 -45.714287,-19.82739 -45.714287,-44.28571 0,-24.45832 20.466984,-44.28571 45.714287,-44.28571 25.2473,0 45.71429,19.82739 45.71429,44.28571 z"
           sodipodi:ry="44.285713"
           sodipodi:rx="45.714287"
           sodipodi:cy="425.21933"
           sodipodi:cx="120"
           id="path4741"
           style="fill:url(#linearGradient6182);fill-opacity:1;stroke:#7e9329;stroke-width:0.89988661;stroke-miterlimit:4;stroke-opacity:1;stroke-dasharray:none"
           sodipodi:type="arc" />
        <path
           sodipodi:type="arc"
           style="fill:#3d480f;fill-opacity:0.94117647;stroke:none"
           id="path4743"
           sodipodi:cx="278.7681"
           sodipodi:cy="401.4711"
           sodipodi:rx="8.7057142"
           sodipodi:ry="9.6318541"
           d="m 287.47381,401.4711 c 0,5.31953 -3.89768,9.63185 -8.70571,9.63185 -4.80804,0 -8.70572,-4.31232 -8.70572,-9.63185 0,-5.31953 3.89768,-9.63185 8.70572,-9.63185 4.80803,0 8.70571,4.31232 8.70571,9.63185 z"
           transform="matrix(1.1486708,0,0,1.0382217,105.12448,-17.88604)" />
        <path
           transform="matrix(1.1486708,0,0,1.0382217,69.124479,-17.88604)"
           d="m 287.47381,401.4711 c 0,5.31953 -3.89768,9.63185 -8.70571,9.63185 -4.80804,0 -8.70572,-4.31232 -8.70572,-9.63185 0,-5.31953 3.89768,-9.63185 8.70572,-9.63185 4.80803,0 8.70571,4.31232 8.70571,9.63185 z"
           sodipodi:ry="9.6318541"
           sodipodi:rx="8.7057142"
           sodipodi:cy="401.4711"
           sodipodi:cx="278.7681"
           id="path4745"
           style="fill:#3d480f;fill-opacity:0.94117647;stroke:none"
           sodipodi:type="arc" />
        <path
           inkscape:connector-curvature="0"
           id="path4747"
           d="m 437.30786,421.58613 -59.94141,0 c -9.4e-4,0.12748 -0.0292,0.24717 -0.0292,0.375 0,17.67311 13.43146,32 30,32 16.56854,0 30,-14.32689 30,-32 0,-0.1279 -0.0278,-0.24745 -0.0292,-0.375 z"
           style="fill:#3d480a;fill-opacity:1;stroke:none" />
      </g>
    </g>
    <path
       sodipodi:type="arc"
       style="fill:#2978a8;fill-opacity:1;stroke:none;filter:url(#filter4914)"
       id="path4920"
       sodipodi:cx="351.83765"
       sodipodi:cy="770.37463"
       sodipodi:rx="5.1740832"
       sodipodi:ry="4.6566749"
       d="m 357.01173,770.37463 a 5.1740832,4.6566749 0 1 1 -10.34817,0 5.1740832,4.6566749 0 1 1 10.34817,0 z"
       transform="matrix(1.4481462,0,0,1.6041355,149.43433,-819.5305)"
       inkscape:export-filename="/Users/gvincent/Desktop/path4924.png"
       inkscape:export-xdpi="150"
       inkscape:export-ydpi="150" />
    <g
       transform="matrix(0.99904382,0,0,0.99599167,-33.343874,-82.42473)"
       id="g4727"
       inkscape:export-filename="/Users/gvincent/Desktop/path4924.png"
       inkscape:export-xdpi="150"
       inkscape:export-ydpi="150">
      <path
         transform="matrix(1.09375,0,0,1.1290323,128.09882,-67.88938)"
         d="m 165.71429,425.21933 c 0,24.45832 -20.46699,44.28571 -45.71429,44.28571 -25.247303,0 -45.714287,-19.82739 -45.714287,-44.28571 0,-24.45832 20.466984,-44.28571 45.714287,-44.28571 25.2473,0 45.71429,19.82739 45.71429,44.28571 z"
         sodipodi:ry="44.285713"
         sodipodi:rx="45.714287"
         sodipodi:cy="425.21933"
         sodipodi:cx="120"
         id="path4729"
         style="fill:url(#linearGradient6145);fill-opacity:1;stroke:#c57b37;stroke-width:0.89988661;stroke-miterlimit:4;stroke-opacity:1;stroke-dasharray:none"
         sodipodi:type="arc" />
      <path
         transform="matrix(1,0,0,1.7130862,-108.61734,-333.56927)"
         d="m 389.44619,448.64169 c 0,4.55156 -9.61694,8.24132 -21.48003,8.24132 -11.8631,0 -21.48004,-3.68976 -21.48004,-8.24132 0,-4.55155 9.61694,-8.24132 21.48004,-8.24132 11.86309,0 21.48003,3.68977 21.48003,8.24132 z"
         sodipodi:ry="8.2413197"
         sodipodi:rx="21.480036"
         sodipodi:cy="448.64169"
         sodipodi:cx="367.96616"
         id="path4731"
         style="fill:#723616;fill-opacity:1;stroke:none"
         sodipodi:type="arc" />
      <path
         sodipodi:type="arc"
         style="fill:#723616;fill-opacity:1;stroke:none"
         id="path4733"
         sodipodi:cx="278.7681"
         sodipodi:cy="401.4711"
         sodipodi:rx="8.7057142"
         sodipodi:ry="9.6318541"
         d="m 287.47381,401.4711 c 0,5.31953 -3.89768,9.63185 -8.70571,9.63185 -4.80804,0 -8.70572,-4.31232 -8.70572,-9.63185 0,-5.31953 3.89768,-9.63185 8.70572,-9.63185 4.80803,0 8.70571,4.31232 8.70571,9.63185 z"
         transform="matrix(1.1486708,0,0,1.0382217,-42.863953,-19.713058)" />
      <path
         transform="matrix(1.1486708,0,0,1.0382217,-78.863953,-19.713058)"
         d="m 287.47381,401.4711 c 0,5.31953 -3.89768,9.63185 -8.70571,9.63185 -4.80804,0 -8.70572,-4.31232 -8.70572,-9.63185 0,-5.31953 3.89768,-9.63185 8.70572,-9.63185 4.80803,0 8.70571,4.31232 8.70571,9.63185 z"
         sodipodi:ry="9.6318541"
         sodipodi:rx="8.7057142"
         sodipodi:cy="401.4711"
         sodipodi:cx="278.7681"
         id="path4735"
         style="fill:#723616;fill-opacity:1;stroke:none"
         sodipodi:type="arc" />
    </g>
    <path
       transform="matrix(1.4481462,0,0,1.6041355,-283.75537,-819.98542)"
       d="m 357.01173,770.37463 a 5.1740832,4.6566749 0 1 1 -10.34817,0 5.1740832,4.6566749 0 1 1 10.34817,0 z"
       sodipodi:ry="4.6566749"
       sodipodi:rx="5.1740832"
       sodipodi:cy="770.37463"
       sodipodi:cx="351.83765"
       id="path4922"
       style="fill:#2978a8;fill-opacity:1;stroke:none;filter:url(#filter4914)"
       sodipodi:type="arc"
       inkscape:export-filename="/Users/gvincent/Desktop/path4924.png"
       inkscape:export-xdpi="150"
       inkscape:export-ydpi="150" />
    <g
       id="g4713"
       transform="matrix(0.99904382,0,0,0.99599167,-53.622038,-82.539538)"
       inkscape:export-filename="/Users/gvincent/Desktop/path4924.png"
       inkscape:export-xdpi="150"
       inkscape:export-ydpi="150">
      <path
         sodipodi:type="arc"
         style="fill:url(#linearGradient6128);fill-opacity:1;stroke:#b54c4f;stroke-width:0.89988661;stroke-miterlimit:4;stroke-opacity:0.94117647;stroke-dasharray:none"
         id="path4715"
         sodipodi:cx="120"
         sodipodi:cy="425.21933"
         sodipodi:rx="45.714287"
         sodipodi:ry="44.285713"
         d="m 165.71429,425.21933 c 0,24.45832 -20.46699,44.28571 -45.71429,44.28571 -25.247303,0 -45.714287,-19.82739 -45.714287,-44.28571 0,-24.45832 20.466984,-44.28571 45.714287,-44.28571 25.2473,0 45.71429,19.82739 45.71429,44.28571 z"
         transform="matrix(1.09375,0,0,1.1290323,3.8616149,-67.88938)" />
      <path
         style="fill:#6e181f;fill-opacity:0.94117647;stroke:none"
         d="m 141.92361,404.33467 c 1.7725,3.42143 5.24242,5.8156 9.3617,5.8156 5.88345,0 10.6383,-4.75485 10.6383,-10.6383 0,-2.87985 -1.16925,-5.45855 -3.026,-7.37588 l -16.974,12.19858 z"
         id="path4717"
         inkscape:connector-curvature="0" />
      <path
         sodipodi:type="star"
         style="opacity:0.79741378;fill:url(#linearGradient6130);fill-opacity:1;stroke:none"
         id="path4719"
         sodipodi:sides="3"
         sodipodi:cx="372.61285"
         sodipodi:cy="406.7337"
         sodipodi:r1="7.0335879"
         sodipodi:r2="3.516794"
         sodipodi:arg1="-0.074859848"
         sodipodi:arg2="0.9723377"
         inkscape:flatsided="false"
         inkscape:rounded="0"
         inkscape:randomized="0"
         d="m 379.62674,406.20766 -5.03263,3.43164 -5.03264,3.43163 -0.45556,-6.07421 -0.45557,-6.0742 5.4882,2.64257 z"
         inkscape:transform-center-x="-1.5256895"
         inkscape:transform-center-y="0.26302084"
         transform="translate(-228.34895,-10.815015)" />
      <path
         inkscape:connector-curvature="0"
         id="path4721"
         d="m 128.30139,404.33467 c -1.7725,3.42143 -5.24242,5.8156 -9.3617,5.8156 -5.88345,0 -10.6383,-4.75485 -10.6383,-10.6383 0,-2.87985 1.16925,-5.45855 3.026,-7.37588 l 16.974,12.19858 z"
         style="fill:#6e181f;fill-opacity:0.94117647;stroke:none" />
      <path
         transform="matrix(-1,0,0,1,498.57395,-10.815015)"
         inkscape:transform-center-y="0.26302084"
         inkscape:transform-center-x="1.5256935"
         d="m 379.62674,406.20766 -5.03263,3.43164 -5.03264,3.43163 -0.45556,-6.07421 -0.45557,-6.0742 5.4882,2.64257 z"
         inkscape:randomized="0"
         inkscape:rounded="0"
         inkscape:flatsided="false"
         sodipodi:arg2="0.9723377"
         sodipodi:arg1="-0.074859848"
         sodipodi:r2="3.516794"
         sodipodi:r1="7.0335879"
         sodipodi:cy="406.7337"
         sodipodi:cx="372.61285"
         sodipodi:sides="3"
         id="path4723"
         style="opacity:0.79741378;fill:url(#linearGradient6132);fill-opacity:1;stroke:none"
         sodipodi:type="star" />
      <path
         sodipodi:type="arc"
         style="opacity:0.79741378;fill:#6e181f;fill-opacity:0.94117647;stroke:none"
         id="path4725"
         sodipodi:cx="367.96616"
         sodipodi:cy="448.64169"
         sodipodi:rx="21.480036"
         sodipodi:ry="8.2413197"
         d="m 389.44619,448.64169 c 0,4.55156 -9.61694,8.24132 -21.48003,8.24132 -11.8631,0 -21.48004,-3.68976 -21.48004,-8.24132 0,-4.55155 9.61694,-8.24132 21.48004,-8.24132 11.86309,0 21.48003,3.68977 21.48003,8.24132 z"
         transform="translate(-232.85454,-12.217793)" />
    </g>
    <path
       sodipodi:type="arc"
       style="fill:#2978a8;fill-opacity:1;stroke:none;filter:url(#filter4914)"
       id="path4924"
       sodipodi:cx="351.83765"
       sodipodi:cy="770.37463"
       sodipodi:rx="5.1740832"
       sodipodi:ry="4.6566749"
       d="m 357.01173,770.37463 a 5.1740832,4.6566749 0 1 1 -10.34817,0 5.1740832,4.6566749 0 1 1 10.34817,0 z"
       transform="matrix(1.4481462,0,0,1.6041355,-428.15196,-820.15771)"
       inkscape:export-xdpi="150"
       inkscape:export-ydpi="150" />
  </g>
</svg>
